<?xml version="1.0" encoding="utf-8"?>
<!-- Generator: Adobe Illustrator 16.0.0, SVG Export Plug-In . SVG Version: 6.00 Build 0)  -->
<!DOCTYPE svg PUBLIC "-//W3C//DTD SVG 1.0//EN" "http://www.w3.org/TR/2001/REC-SVG-20010904/DTD/svg10.dtd">
<svg version="1.0" id="Layer_1" xmlns="http://www.w3.org/2000/svg" xmlns:xlink="http://www.w3.org/1999/xlink" x="0px" y="0px"
	 width="100px" height="100px" viewBox="0 0 100 100" enable-background="new 0 0 100 100" xml:space="preserve">
<path fill="#75C6A4" stroke="#335C5F" stroke-width="1.5" stroke-linecap="round" stroke-linejoin="round" stroke-miterlimit="10" d="
	M47.501,49.17c-1.558,0.927-3.24,1.455-5,1.455c-2.25,0-4.372-0.834-6.26-2.295v0.548c0,1.843-0.744,3.513-1.953,4.716
	c-0.617,0.615-1.351,1.109-2.167,1.445l-18.756,7.773C11.284,64.893,10,67.764,10,70.936V90h37.501V49.17z"/>
<path fill="#E9EAEF" stroke="#335C5F" stroke-width="1.5" stroke-linecap="round" stroke-linejoin="round" stroke-miterlimit="10" d="
	M83.903,56.602L71.528,44.23c-1.465-1.464-3.838-1.464-5.303,0l0,0L47.501,62.953v15.578l7.235,7.238
	c1.463,1.465,3.838,1.469,5.301,0l6.53-6.527c-0.461-0.094-0.947-0.094-1.424,0.037c-0.086-0.582-0.141-1.174-0.141-1.781
	c0-0.605,0.055-1.195,0.141-1.777c1.496,0.402,3.092-0.342,3.697-1.809c0.609-1.465,0.008-3.121-1.336-3.889
	c0.717-0.959,1.563-1.803,2.518-2.52c0.771,1.34,2.422,1.943,3.889,1.338c1.469-0.611,2.213-2.205,1.811-3.701
	C76.304,65.059,76.892,65,77.501,65c0.604,0,1.197,0.059,1.779,0.141c-0.129,0.479-0.129,0.965-0.039,1.426l4.662-4.66l0,0
	C85.367,60.44,85.367,58.064,83.903,56.602z"/>
<path fill="#E9EAEF" stroke="#335C5F" stroke-width="1.5" stroke-linecap="round" stroke-linejoin="round" stroke-miterlimit="10" d="
	M86.693,16.818H75.78L61.485,31.111l-6.481,3.89l3.887-6.488l11.7-11.695H47.501v36.366h9.77l8.954-8.954l0,0
	c1.465-1.464,3.838-1.464,5.303,0l8.953,8.954h6.212c1.826,0,3.307-1.48,3.307-3.307V20.125C90,18.299,88.52,16.818,86.693,16.818z"
	/>
<path fill="#46C6F1" stroke="#335C5F" stroke-width="1.5" stroke-linecap="round" stroke-linejoin="round" stroke-miterlimit="10" d="
	M65.341,45.116L47.501,62.953v6.75l14.304,14.302l4.766-4.763c-0.465-0.094-0.951-0.094-1.428,0.037
	c-0.086-0.582-0.141-1.174-0.141-1.781c0-0.605,0.055-1.195,0.141-1.777c1.496,0.402,3.092-0.342,3.697-1.809
	c0.609-1.465,0.008-3.121-1.336-3.889c0.717-0.959,1.563-1.803,2.518-2.52c0.771,1.34,2.422,1.943,3.889,1.338
	c1.469-0.611,2.213-2.205,1.811-3.701C76.304,65.059,76.892,65,77.501,65c0.604,0,1.197,0.059,1.779,0.141
	c-0.129,0.479-0.129,0.965-0.039,1.43l3.779-3.779L65.341,45.116z"/>
<path fill="#46C6F1" stroke="#335C5F" stroke-width="1.5" stroke-linecap="round" stroke-linejoin="round" stroke-miterlimit="10" d="
	M73.505,19.091l-12.02,12.02l-6.481,3.89l3.887-6.488l9.427-9.422H47.501V50.91h12.043l6.681-6.68l0,0
	c1.465-1.464,3.838-1.464,5.303,0l6.68,6.68h4.975V19.091H73.505z"/>
<path fill="#3EAED3" d="M81.747,50.91l-8.451-8.448c-1.18-1.181-2.75-1.831-4.418-1.831c-1.67,0-3.238,0.65-4.42,1.831l-8.45,8.448
	h3.535l6.683-6.68c1.465-1.464,3.838-1.464,5.303,0l6.68,6.68H81.747z"/>
<rect x="79.433" y="19.091" fill="#3EAED3" width="3.75" height="31.819"/>
<path fill="none" stroke="#335C5F" stroke-width="1.5" stroke-linecap="round" stroke-linejoin="round" stroke-miterlimit="10" d="
	M25,69.998L22.499,90L25,69.998z"/>
<path fill="#65AD90" d="M47.501,49.17c-1.558,0.927-3.24,1.455-5,1.455c-2.25,0-4.372-0.834-6.26-2.295v0.548
	c0,1.235-0.342,2.388-0.925,3.378c2.211,1.373,4.642,2.119,7.185,2.119c1.712,0,3.385-0.342,5-1.006V49.17z"/>
<path fill="#FADF7E" stroke="#335C5F" stroke-width="1.5" stroke-linecap="round" stroke-linejoin="round" stroke-miterlimit="10" d="
	M47.501,10.913c-1.558-0.586-3.24-0.913-5-0.913c-7.263,0-13.241,5.447-14.105,12.479v4.057c-1.84,0.655-3.163,2.392-3.163,4.455
	c0,4.038,2.051,7.311,4.606,7.424c2.35,7.242,7.132,12.21,12.662,12.21c1.76,0,3.442-0.507,5-1.43V10.913z"/>
<path fill="none" stroke="#335C5F" stroke-width="1.5" stroke-linecap="round" stroke-linejoin="round" stroke-miterlimit="10" d="
	M77.274,53.51l-2.652-2.65L77.274,53.51z"/>
<path fill="#3EAED3" d="M73.911,68.842c1.469-0.611,2.213-2.205,1.811-3.701C76.304,65.059,76.892,65,77.501,65
	c0.604,0,1.197,0.059,1.779,0.141c-0.129,0.479-0.129,0.965-0.039,1.43l3.068-3.068l0.119-0.439l-2.797-0.396
	c-0.799-0.113-1.475-0.166-2.131-0.166s-1.334,0.053-2.131,0.166l-2.799,0.396l0.734,2.73c0.072,0.264-0.025,0.604-0.35,0.736
	c-0.074,0.031-0.15,0.047-0.227,0.047c-0.219,0-0.428-0.121-0.541-0.318l-1.41-2.449l-2.258,1.697
	c-1.15,0.863-2.166,1.879-3.018,3.02l-1.695,2.264l2.455,1.404c0.23,0.131,0.402,0.441,0.268,0.764
	c-0.113,0.275-0.377,0.373-0.568,0.373c-0.055,0-0.111-0.008-0.168-0.023l-2.711-0.73l-0.412,2.779
	c-0.113,0.764-0.168,1.465-0.168,2.143c0,0.68,0.055,1.383,0.168,2.148l0.412,2.778l0.416-0.113l3.072-3.069
	c-0.465-0.094-0.951-0.094-1.428,0.037c-0.086-0.582-0.141-1.174-0.141-1.781c0-0.605,0.055-1.195,0.141-1.777
	c1.496,0.402,3.092-0.342,3.697-1.809c0.609-1.465,0.008-3.121-1.336-3.889c0.717-0.959,1.563-1.803,2.518-2.52
	C70.794,68.844,72.444,69.447,73.911,68.842z"/>
<path fill="#FADF7E" stroke="#335C5F" stroke-width="1.5" stroke-linecap="round" stroke-linejoin="round" stroke-miterlimit="10" d="
	M89.855,75.721c-1.49,0.402-3.086-0.344-3.693-1.809c-0.609-1.467-0.006-3.121,1.334-3.889c-0.713-0.959-1.561-1.807-2.516-2.523
	c-0.773,1.344-2.429,1.947-3.892,1.342c-1.469-0.611-2.213-2.205-1.809-3.701C78.698,65.059,78.104,65,77.501,65
	c-0.609,0-1.197,0.059-1.779,0.141c0.402,1.496-0.342,3.09-1.811,3.701c-1.467,0.605-3.117,0.002-3.889-1.338
	c-0.955,0.717-1.801,1.561-2.518,2.52c1.344,0.768,1.945,2.424,1.336,3.889c-0.605,1.467-2.201,2.211-3.697,1.809
	c-0.086,0.582-0.141,1.172-0.141,1.777c0,0.607,0.055,1.199,0.141,1.781c1.496-0.402,3.092,0.342,3.697,1.808
	c0.609,1.469,0.008,3.122-1.336,3.894c0.717,0.955,1.563,1.799,2.518,2.516c0.771-1.34,2.426-1.943,3.889-1.336
	c1.469,0.609,2.213,2.205,1.811,3.699C76.304,89.941,76.892,90,77.501,90c0.607,0,1.197-0.059,1.779-0.141
	c-0.404-1.494,0.344-3.09,1.809-3.699c1.467-0.607,3.118-0.004,3.892,1.336c0.955-0.717,1.803-1.564,2.516-2.518
	c-1.34-0.771-1.943-2.427-1.334-3.896c0.607-1.466,2.203-2.206,3.693-1.804C89.941,78.697,90,78.105,90,77.498
	C90,76.893,89.941,76.303,89.855,75.721z M77.501,83.228c-3.166,0-5.729-2.564-5.729-5.729c0-3.162,2.563-5.725,5.729-5.725
	c3.164,0,5.727,2.563,5.727,5.725C83.228,80.663,80.665,83.228,77.501,83.228z"/>
<polygon fill="#3EAED3" points="77.255,19.091 73.505,19.091 61.485,31.111 60.859,31.486 58.754,35.001 65.235,31.111 "/>
<path fill="#D8C26F" d="M30.764,25.799c0-8.004,5.954-14.611,13.671-15.651C43.801,10.062,43.157,10,42.498,10
	c-7.787,0-14.099,6.313-14.099,14.1v2.438c-1.839,0.654-3.165,2.388-3.165,4.452c0,4.041,2.051,7.311,4.604,7.424
	c2.352,7.244,7.132,12.211,12.66,12.211c0.676,0,1.339-0.076,1.99-0.22C36.743,48.808,30.764,38.406,30.764,25.799z"/>
<path fill="none" stroke="#335C5F" stroke-width="1.5" stroke-linecap="round" stroke-linejoin="round" stroke-miterlimit="10" d="
	M47.501,10.913c-1.558-0.586-3.24-0.913-5-0.913c-7.263,0-13.241,5.447-14.105,12.479v4.057c-1.84,0.655-3.163,2.392-3.163,4.455
	c0,4.038,2.051,7.311,4.606,7.424c2.35,7.242,7.132,12.21,12.662,12.21c1.76,0,3.442-0.507,5-1.43V10.913z"/>
<path fill="none" stroke="#335C5F" stroke-width="1.5" stroke-linecap="round" stroke-linejoin="round" stroke-miterlimit="10" d="
	M47.501,49.17c-1.558,0.927-3.24,1.455-5,1.455c-2.25,0-4.372-0.834-6.26-2.295v0.548c0,1.843-0.744,3.513-1.953,4.716
	c-0.617,0.615-1.351,1.109-2.167,1.445l-18.756,7.773C11.284,64.893,10,67.764,10,70.936V90h37.501V49.17z"/>
<polygon fill="#CACCD1" points="79.53,16.818 75.78,16.818 73.505,19.091 77.255,19.091 "/>
<path fill="#CACCD1" d="M86.693,16.818h-3.749c1.825,0,3.308,1.481,3.308,3.307v29.752c0,1.5-1.008,2.756-2.38,3.159l-2.125-2.125
	h-3.539l2.273,2.273h6.212c1.826,0,3.307-1.48,3.307-3.307V20.125C90,18.299,88.52,16.818,86.693,16.818z"/>
<polygon fill="#CACCD1" points="56.008,50.91 53.736,53.184 57.271,53.184 59.543,50.91 "/>
<path fill="none" stroke="#335C5F" stroke-width="1.5" stroke-linecap="round" stroke-linejoin="round" stroke-miterlimit="10" d="
	M86.59,36.651v-3.303V36.651z"/>
<path fill="#FADF7E" stroke="#335C5F" stroke-width="1.5" stroke-linecap="round" stroke-linejoin="round" stroke-miterlimit="10" d="
	M78.78,10.358c-0.477-0.476-1.25-0.476-1.73,0.004l0,0L58.891,28.513l-3.887,6.488l6.481-3.89l18.16-18.159l0,0
	c0.479-0.475,0.475-1.25,0-1.726L78.78,10.358z"/>
<path fill="none" stroke="#335C5F" stroke-width="1.5" stroke-linecap="round" stroke-linejoin="round" stroke-miterlimit="10" d="
	M75.321,12.088l2.594,2.594L75.321,12.088z"/>
<path fill="none" stroke="#335C5F" stroke-width="1.5" stroke-linecap="round" stroke-linejoin="round" stroke-miterlimit="10" d="
	M73.591,13.817l2.596,2.593L73.591,13.817z"/>
<path fill="none" stroke="#335C5F" stroke-width="1.5" stroke-linecap="round" stroke-linejoin="round" stroke-miterlimit="10" d="
	M58.891,28.517l2.595,2.594L58.891,28.517z"/>
<path fill="none" stroke="#335C5F" stroke-width="1.5" stroke-linecap="round" stroke-linejoin="round" stroke-miterlimit="10" d="
	M83.903,56.602L71.528,44.23c-1.465-1.464-3.838-1.464-5.303,0l0,0L47.501,62.953v15.578l7.235,7.238
	c1.463,1.465,3.838,1.469,5.301,0l6.53-6.527c-0.461-0.094-0.947-0.094-1.424,0.037c-0.086-0.582-0.141-1.174-0.141-1.781
	c0-0.605,0.055-1.195,0.141-1.777c1.496,0.402,3.092-0.342,3.697-1.809c0.609-1.465,0.008-3.121-1.336-3.889
	c0.717-0.959,1.563-1.803,2.518-2.52c0.771,1.34,2.422,1.943,3.889,1.338c1.469-0.611,2.213-2.205,1.811-3.701
	C76.304,65.059,76.892,65,77.501,65c0.604,0,1.197,0.059,1.779,0.141c-0.129,0.479-0.129,0.965-0.039,1.426l4.662-4.66l0,0
	C85.367,60.44,85.367,58.064,83.903,56.602z"/>
<path fill="none" stroke="#335C5F" stroke-width="1.5" stroke-linecap="round" stroke-linejoin="round" stroke-miterlimit="10" d="
	M86.693,16.818H75.78L61.485,31.111l-6.481,3.89l3.887-6.488l11.7-11.695H47.501v36.366h9.77l8.954-8.954l0,0
	c1.465-1.464,3.838-1.464,5.303,0l8.953,8.954h6.212c1.826,0,3.307-1.48,3.307-3.307V20.125C90,18.299,88.52,16.818,86.693,16.818z"
	/>
<path fill="none" stroke="#335C5F" stroke-width="1.5" stroke-linecap="round" stroke-linejoin="round" stroke-miterlimit="10" d="
	M65.341,45.116L47.501,62.953v6.75l14.304,14.302l4.766-4.763c-0.465-0.094-0.951-0.094-1.428,0.037
	c-0.086-0.582-0.141-1.174-0.141-1.781c0-0.605,0.055-1.195,0.141-1.777c1.496,0.402,3.092-0.342,3.697-1.809
	c0.609-1.465,0.008-3.121-1.336-3.889c0.717-0.959,1.563-1.803,2.518-2.52c0.771,1.34,2.422,1.943,3.889,1.338
	c1.469-0.611,2.213-2.205,1.811-3.701C76.304,65.059,76.892,65,77.501,65c0.604,0,1.197,0.059,1.779,0.141
	c-0.129,0.479-0.129,0.965-0.039,1.43l3.779-3.779L65.341,45.116z"/>
<path fill="none" stroke="#335C5F" stroke-width="1.5" stroke-linecap="round" stroke-linejoin="round" stroke-miterlimit="10" d="
	M73.505,19.091l-12.02,12.02l-6.481,3.89l3.887-6.488l9.427-9.422H47.501V50.91h12.043l6.681-6.68l0,0
	c1.465-1.464,3.838-1.464,5.303,0l6.68,6.68h4.975V19.091H73.505z"/>
</svg>
