<?xml version="1.0" encoding="utf-8"?>
<!-- Generator: Adobe Illustrator 16.0.0, SVG Export Plug-In . SVG Version: 6.00 Build 0)  -->
<!DOCTYPE svg PUBLIC "-//W3C//DTD SVG 1.0//EN" "http://www.w3.org/TR/2001/REC-SVG-20010904/DTD/svg10.dtd">
<svg version="1.0" id="Layer_1" xmlns="http://www.w3.org/2000/svg" xmlns:xlink="http://www.w3.org/1999/xlink" x="0px" y="0px"
	 width="100px" height="100px" viewBox="0 0 100 100" enable-background="new 0 0 100 100" xml:space="preserve">
<rect x="14.998" y="55" fill="#E9EAEF" stroke="#335C5F" stroke-width="1.5" stroke-linecap="round" stroke-linejoin="round" stroke-miterlimit="10" width="45.001" height="35"/>
<rect x="56.249" y="55" fill="#CACCD1" width="3.75" height="35"/>
<rect x="18.75" y="58.752" fill="#46C6F1" stroke="#335C5F" stroke-width="1.5" stroke-linecap="round" stroke-linejoin="round" stroke-miterlimit="10" width="37.501" height="27.498"/>
<rect x="53.751" y="58.752" fill="#3EAED3" width="2.5" height="27.498"/>
<polygon fill="#46C6F1" stroke="#335C5F" stroke-width="1.5" stroke-linecap="round" stroke-linejoin="round" stroke-miterlimit="10" points="
	10,15.002 10,60.002 14.998,60.002 14.998,55 59.999,55 59.999,60.002 90,60.002 90,15.002 "/>
<polygon fill="#3EAED3" points="12.498,60.002 14.998,60.002 14.998,55 59.999,55 59.999,60.002 62.5,60.002 62.5,52.5 12.498,52.5 
	"/>
<rect x="87.5" y="15.002" fill="#3EAED3" width="2.5" height="45"/>
<rect x="14.998" y="30.002" fill="#FADF7E" stroke="#335C5F" stroke-width="1.5" stroke-linecap="round" stroke-linejoin="round" stroke-miterlimit="10" width="40.003" height="19.998"/>
<rect x="14.998" y="20.001" fill="#75C6A4" stroke="#335C5F" stroke-width="1.5" stroke-linecap="round" stroke-linejoin="round" stroke-miterlimit="10" width="40.003" height="4.999"/>
<rect x="51.251" y="30.002" fill="#D8C26F" width="3.75" height="19.998"/>
<rect x="51.251" y="20.001" fill="#65AD90" width="3.75" height="4.999"/>
<rect x="10" y="10" fill="#E9EAEF" stroke="#335C5F" stroke-width="1.5" stroke-linecap="round" stroke-linejoin="round" stroke-miterlimit="10" width="80" height="5"/>
<rect x="85.001" y="10" fill="#FADF7E" stroke="#335C5F" stroke-width="1.5" stroke-linecap="round" stroke-linejoin="round" stroke-miterlimit="10" width="4.999" height="5"/>
<rect x="79.999" y="10" fill="#FADF7E" stroke="#335C5F" stroke-width="1.5" stroke-linecap="round" stroke-linejoin="round" stroke-miterlimit="10" width="5.002" height="5"/>
<rect x="75" y="10" fill="#FADF7E" stroke="#335C5F" stroke-width="1.5" stroke-linecap="round" stroke-linejoin="round" stroke-miterlimit="10" width="4.999" height="5"/>
<polygon fill="#70929F" stroke="#335C5F" stroke-width="1.5" stroke-linecap="round" stroke-linejoin="round" stroke-miterlimit="10" points="
	49.354,86.25 31.542,62.5 18.75,79.553 18.75,86.25 "/>
<polygon fill="#62818C" points="31.542,62.5 29.667,64.998 45.604,86.25 49.354,86.25 "/>
<path fill="#FADF7E" stroke="#335C5F" stroke-width="1.5" stroke-linecap="round" stroke-linejoin="round" stroke-miterlimit="10" d="
	M43.783,78.824c3.425-0.605,6.025-3.591,6.025-7.187c0-4.04-3.27-7.312-7.307-7.312c-2.871,0-5.347,1.656-6.543,4.064L43.783,78.824
	z"/>
<path fill="#D8C26F" d="M42.502,64.326c-0.648,0-1.271,0.094-1.868,0.252c3.124,0.832,5.426,3.672,5.426,7.06
	c0,2.494-1.252,4.691-3.16,6.007l0.884,1.18c3.425-0.605,6.025-3.591,6.025-7.187C49.809,67.598,46.539,64.326,42.502,64.326z"/>
<polygon fill="#E9EAEF" stroke="#335C5F" stroke-width="1.5" stroke-linecap="round" stroke-linejoin="round" stroke-miterlimit="10" points="
	59.999,20.001 59.999,40 70.625,40 72.503,36.252 74.377,40 85.001,40 85.001,20.001 "/>
<rect x="81.251" y="20.001" fill="#CACCD1" width="3.75" height="19.999"/>
<rect x="14.998" y="30.002" fill="none" stroke="#335C5F" stroke-width="1.5" stroke-linecap="round" stroke-linejoin="round" stroke-miterlimit="10" width="40.003" height="19.998"/>
<rect x="14.998" y="20.001" fill="none" stroke="#335C5F" stroke-width="1.5" stroke-linecap="round" stroke-linejoin="round" stroke-miterlimit="10" width="40.003" height="4.999"/>
<polygon fill="#CACCD1" points="72.504,32.061 68.528,40 70.625,40 72.503,36.252 74.377,40 76.473,40 "/>
<polygon fill="none" stroke="#335C5F" stroke-width="1.5" stroke-linecap="round" stroke-linejoin="round" stroke-miterlimit="10" points="
	59.999,20.001 59.999,40 70.625,40 72.503,36.252 74.377,40 85.001,40 85.001,20.001 "/>
<polygon fill="none" stroke="#335C5F" stroke-width="1.5" stroke-linecap="round" stroke-linejoin="round" stroke-miterlimit="10" points="
	59.999,72.501 72.503,72.501 72.503,43.749 72.503,72.501 "/>
<polygon fill="#E9EAEF" stroke="#335C5F" stroke-width="1.5" stroke-linecap="round" stroke-linejoin="round" stroke-miterlimit="10" points="
	72.503,36.252 76.251,43.752 68.75,43.745 "/>
<polygon fill="none" stroke="#335C5F" stroke-width="1.5" stroke-linecap="round" stroke-linejoin="round" stroke-miterlimit="10" points="
	59.999,20.001 59.999,40 70.625,40 72.503,36.252 74.377,40 85.001,40 85.001,20.001 "/>
<rect x="14.998" y="55" fill="none" stroke="#335C5F" stroke-width="1.5" stroke-linecap="round" stroke-linejoin="round" stroke-miterlimit="10" width="45.001" height="35"/>
<rect x="18.75" y="58.752" fill="none" stroke="#335C5F" stroke-width="1.5" stroke-linecap="round" stroke-linejoin="round" stroke-miterlimit="10" width="37.501" height="27.498"/>
<polygon fill="none" stroke="#335C5F" stroke-width="1.5" stroke-linecap="round" stroke-linejoin="round" stroke-miterlimit="10" points="
	10,15.002 10,60.002 14.998,60.002 14.998,55 59.999,55 59.999,60.002 90,60.002 90,15.002 "/>
<polygon fill="none" stroke="#335C5F" stroke-width="1.5" stroke-linecap="round" stroke-linejoin="round" stroke-miterlimit="10" points="
	49.354,86.25 31.542,62.5 18.75,79.553 18.75,86.25 "/>
<path fill="none" stroke="#335C5F" stroke-width="1.5" stroke-linecap="round" stroke-linejoin="round" stroke-miterlimit="10" d="
	M43.783,78.824c3.425-0.605,6.025-3.591,6.025-7.187c0-4.04-3.27-7.312-7.307-7.312c-2.871,0-5.347,1.656-6.543,4.064L43.783,78.824
	z"/>
</svg>
