<?xml version="1.0" encoding="utf-8"?>
<!-- Generator: Adobe Illustrator 16.0.0, SVG Export Plug-In . SVG Version: 6.00 Build 0)  -->
<!DOCTYPE svg PUBLIC "-//W3C//DTD SVG 1.0//EN" "http://www.w3.org/TR/2001/REC-SVG-20010904/DTD/svg10.dtd">
<svg version="1.0" id="Layer_1" xmlns="http://www.w3.org/2000/svg" xmlns:xlink="http://www.w3.org/1999/xlink" x="0px" y="0px"
	 width="100px" height="100px" viewBox="0 0 100 100" enable-background="new 0 0 100 100" xml:space="preserve">
<path fill="#E9EAEF" stroke="#335C5F" stroke-width="1.5" stroke-linecap="round" stroke-linejoin="round" stroke-miterlimit="10" d="
	M30,20.288v31.371c5.13-2.806,11.693-2.047,16.037,2.298c4.345,4.346,5.106,10.91,2.298,16.044H90V20.288H30z"/>
<path fill="#CACCD1" d="M36.479,47.498c-2.27,0-4.463,0.482-6.479,1.375v2.785c5.13-2.806,11.693-2.047,16.037,2.298
	c4.345,4.346,5.106,10.91,2.298,16.044h2.787c0.894-2.018,1.377-4.211,1.376-6.484c0-4.278-1.667-8.302-4.693-11.328
	C44.78,49.164,40.758,47.498,36.479,47.498z"/>
<rect x="85.001" y="20.288" fill="#CACCD1" width="4.999" height="49.712"/>
<path fill="#46C6F1" stroke="#335C5F" stroke-width="1.5" stroke-linecap="round" stroke-linejoin="round" stroke-miterlimit="10" d="
	M80.567,24.577l-41.142-0.005c-2.838,0-5.14,2.303-5.14,5.146V50.19c4.148-0.683,8.551,0.564,11.751,3.766
	c3.201,3.2,4.448,7.608,3.77,11.762h30.765c2.839,0,5.144-2.306,5.144-5.146V29.718C85.715,26.877,83.41,24.577,80.567,24.577z"/>
<path fill="#75C6A4" stroke="#335C5F" stroke-width="1.5" stroke-linecap="round" stroke-linejoin="round" stroke-miterlimit="10" d="
	M46.037,53.956c2.757,2.759,4.063,6.414,3.938,10.028l4.365-6.981l-7.697-12.307c-1.141-1.822-3.004-1.822-4.145,0l-3.466,5.544
	C41.6,50.731,44.049,51.968,46.037,53.956z"/>
<path fill="#70929F" stroke="#335C5F" stroke-width="1.5" stroke-linecap="round" stroke-linejoin="round" stroke-miterlimit="10" d="
	M26.92,73.076c-0.559-0.559-1.041-1.154-1.479-1.777L10.99,84.229c-1.32,1.319-1.32,3.459,0,4.782c1.319,1.319,3.463,1.319,4.782,0
	l12.926-14.457C28.078,74.113,27.478,73.631,26.92,73.076z"/>
<path fill="#65AD90" d="M52.198,60.429c-0.603-3.103-2.11-5.956-4.394-8.241c-2.068-2.067-4.609-3.483-7.374-4.182l-1.397,2.234
	c2.567,0.491,5.017,1.728,7.004,3.716c2.757,2.759,4.063,6.414,3.938,10.028L52.198,60.429z"/>
<circle fill="#70929F" stroke="#335C5F" stroke-width="1.5" stroke-linecap="round" stroke-linejoin="round" stroke-miterlimit="10" cx="36.479" cy="63.516" r="13.519"/>
<rect x="30" y="10" fill="#E9EAEF" stroke="#335C5F" stroke-width="1.5" stroke-linecap="round" stroke-linejoin="round" stroke-miterlimit="10" width="60" height="10.288"/>
<rect x="85.001" y="10" fill="#CACCD1" width="4.999" height="10.288"/>
<path fill="#FADF7E" stroke="#335C5F" stroke-width="1.5" stroke-linecap="round" stroke-linejoin="round" stroke-miterlimit="10" d="
	M61.289,34.86c0,3.551-2.88,6.425-6.433,6.425c-3.552,0-6.428-2.874-6.428-6.425c0-3.552,2.876-6.43,6.428-6.43
	C58.409,28.43,61.289,31.308,61.289,34.86z"/>
<path fill="#D8C26F" d="M54.856,28.43c-0.652,0-1.281,0.099-1.875,0.279c2.638,0.802,4.558,3.252,4.558,6.15
	c0,2.899-1.92,5.345-4.558,6.147c0.594,0.18,1.223,0.278,1.875,0.278c3.553,0,6.433-2.874,6.433-6.425
	C61.289,31.308,58.409,28.43,54.856,28.43z"/>
<rect x="83.251" y="13.535" fill="#FADF7E" stroke="#335C5F" stroke-width="1.5" stroke-linecap="round" stroke-linejoin="round" stroke-miterlimit="10" width="3.211" height="3.217"/>
<rect x="76.823" y="13.535" fill="#FADF7E" stroke="#335C5F" stroke-width="1.5" stroke-linecap="round" stroke-linejoin="round" stroke-miterlimit="10" width="3.21" height="3.217"/>
<rect x="70.395" y="13.535" fill="#FADF7E" stroke="#335C5F" stroke-width="1.5" stroke-linecap="round" stroke-linejoin="round" stroke-miterlimit="10" width="3.21" height="3.217"/>
<path fill="none" stroke="#335C5F" stroke-width="1.5" stroke-linecap="round" stroke-linejoin="round" stroke-miterlimit="10" d="
	M33.542,13.535h25.714H33.542z"/>
<path fill="none" stroke="#335C5F" stroke-width="1.5" stroke-linecap="round" stroke-linejoin="round" stroke-miterlimit="10" d="
	M33.542,16.751h17.143H33.542z"/>
<path fill="#46C6F1" stroke="#335C5F" stroke-width="1.5" stroke-linecap="round" stroke-linejoin="round" stroke-miterlimit="10" d="
	M43.553,70.585c-3.907,3.91-10.239,3.91-14.143,0c-3.906-3.903-3.906-10.238,0-14.144c3.903-3.905,10.235-3.905,14.139,0
	C47.457,60.347,47.459,66.682,43.553,70.585z"/>
<path fill="#3EAED3" d="M43.549,56.441c-2.593-2.594-6.255-3.454-9.569-2.602c1.674,0.432,3.259,1.291,4.57,2.602
	c3.906,3.905,3.91,10.24,0.003,14.144c-1.311,1.313-2.899,2.174-4.572,2.605c3.313,0.854,6.977-0.008,9.572-2.605
	C47.459,66.682,47.457,60.347,43.549,56.441z"/>
<path fill="none" stroke="#335C5F" stroke-width="1.5" stroke-linecap="round" stroke-linejoin="round" stroke-miterlimit="10" d="
	M32.06,59.094c-2.439,2.441-2.439,6.399,0,8.842C29.621,65.493,29.621,61.535,32.06,59.094z"/>
<path fill="none" stroke="#335C5F" stroke-width="1.5" stroke-linecap="round" stroke-linejoin="round" stroke-miterlimit="10" d="
	M43.553,70.585c-3.907,3.91-10.239,3.91-14.143,0c-3.906-3.903-3.906-10.238,0-14.144c3.903-3.905,10.235-3.905,14.139,0
	C47.457,60.347,47.459,66.682,43.553,70.585z"/>
<path fill="#3EAED3" d="M80.567,24.577h-5.002c2.843,0,5.147,2.301,5.147,5.142v30.854c0,2.84-2.305,5.146-5.145,5.146h5.003
	c2.839,0,5.144-2.306,5.144-5.146V29.718C85.715,26.877,83.41,24.577,80.567,24.577z"/>
<path fill="#75C6A4" stroke="#335C5F" stroke-width="1.5" stroke-linecap="round" stroke-linejoin="round" stroke-miterlimit="10" d="
	M72.953,35.752c-1.467-2.346-3.864-2.346-5.332,0L49.975,63.984c-0.021,0.579-0.076,1.157-0.169,1.733h30.765
	c2.839,0,5.144-2.306,5.144-5.146v-4.401L72.953,35.752z"/>
<path fill="#65AD90" d="M80.713,48.168L80.713,48.168l-7.76-12.416c-1.226-1.961-3.101-2.276-4.541-0.959
	c0.283,0.259,0.55,0.574,0.791,0.959l11.51,18.417v6.402c0,2.84-2.305,5.146-5.145,5.146h5.003c2.839,0,5.144-2.306,5.144-5.146
	v-4.401L80.713,48.168z"/>
<path fill="#65AD90" d="M52.198,60.428l-2.223,3.557c-0.021,0.579-0.076,1.157-0.169,1.733h2.524
	c0.099-0.726,0.167-1.458,0.167-2.202C52.497,62.467,52.394,61.436,52.198,60.428z"/>
<path fill="#E9EAEF" stroke="#335C5F" stroke-width="1.5" stroke-linecap="round" stroke-linejoin="round" stroke-miterlimit="10" d="
	M70.287,50.288c3.651,0,6.994-1.271,9.633-3.387l-6.967-11.149c-1.467-2.346-3.864-2.346-5.332,0l-6.966,11.149
	C63.294,49.017,66.639,50.288,70.287,50.288z"/>
<path fill="#CACCD1" d="M72.431,35.061c-0.151-0.166-0.307-0.313-0.468-0.44c-0.028-0.021-0.058-0.041-0.086-0.063
	c-0.346-0.256-0.712-0.426-1.084-0.505c-0.017-0.004-0.032-0.008-0.048-0.011c-0.19-0.037-0.384-0.051-0.575-0.041
	c-0.009,0.001-0.018,0.002-0.026,0.003c-0.601,0.037-1.195,0.3-1.731,0.789c0.283,0.259,0.55,0.574,0.791,0.959l8.038,12.862
	c0.952-0.483,1.853-1.051,2.679-1.713l-6.967-11.149c-0.139-0.222-0.287-0.415-0.44-0.595
	C72.485,35.125,72.459,35.092,72.431,35.061z"/>
<path fill="none" stroke="#335C5F" stroke-width="1.5" stroke-linecap="round" stroke-linejoin="round" stroke-miterlimit="10" d="
	M30,20.288v31.371c5.13-2.806,11.693-2.047,16.037,2.298c4.345,4.346,5.106,10.91,2.298,16.044H90V20.288H30z"/>
<path fill="none" stroke="#335C5F" stroke-width="1.5" stroke-linecap="round" stroke-linejoin="round" stroke-miterlimit="10" d="
	M80.567,24.577l-41.142-0.005c-2.838,0-5.14,2.303-5.14,5.146V50.19c4.148-0.683,8.551,0.564,11.751,3.766
	c3.201,3.2,4.448,7.608,3.77,11.762h30.765c2.839,0,5.144-2.306,5.144-5.146V29.718C85.715,26.877,83.41,24.577,80.567,24.577z"/>
<path fill="none" stroke="#335C5F" stroke-width="1.5" stroke-linecap="round" stroke-linejoin="round" stroke-miterlimit="10" d="
	M46.037,53.956c2.757,2.759,4.063,6.414,3.938,10.028l4.365-6.981l-7.697-12.307c-1.141-1.822-3.004-1.822-4.145,0l-3.466,5.544
	C41.6,50.731,44.049,51.968,46.037,53.956z"/>
<rect x="30" y="10" fill="none" stroke="#335C5F" stroke-width="1.5" stroke-linecap="round" stroke-linejoin="round" stroke-miterlimit="10" width="60" height="10.288"/>
<path fill="none" stroke="#335C5F" stroke-width="1.5" stroke-linecap="round" stroke-linejoin="round" stroke-miterlimit="10" d="
	M61.289,34.86c0,3.551-2.88,6.425-6.433,6.425c-3.552,0-6.428-2.874-6.428-6.425c0-3.552,2.876-6.43,6.428-6.43
	C58.409,28.43,61.289,31.308,61.289,34.86z"/>
<path fill="none" stroke="#335C5F" stroke-width="1.5" stroke-linecap="round" stroke-linejoin="round" stroke-miterlimit="10" d="
	M72.953,35.752c-1.467-2.346-3.864-2.346-5.332,0L49.975,63.984c-0.021,0.579-0.076,1.157-0.169,1.733h30.765
	c2.839,0,5.144-2.306,5.144-5.146v-4.401L72.953,35.752z"/>
<path fill="none" stroke="#335C5F" stroke-width="1.5" stroke-linecap="round" stroke-linejoin="round" stroke-miterlimit="10" d="
	M70.287,50.288c3.651,0,6.994-1.271,9.633-3.387l-6.967-11.149c-1.467-2.346-3.864-2.346-5.332,0l-6.966,11.149
	C63.294,49.017,66.639,50.288,70.287,50.288z"/>
</svg>
