<?xml version="1.0" encoding="utf-8"?>
<!-- Generator: Adobe Illustrator 16.0.0, SVG Export Plug-In . SVG Version: 6.00 Build 0)  -->
<!DOCTYPE svg PUBLIC "-//W3C//DTD SVG 1.0//EN" "http://www.w3.org/TR/2001/REC-SVG-20010904/DTD/svg10.dtd">
<svg version="1.0" id="Layer_1" xmlns="http://www.w3.org/2000/svg" xmlns:xlink="http://www.w3.org/1999/xlink" x="0px" y="0px"
	 width="100px" height="100px" viewBox="0 0 100 100" enable-background="new 0 0 100 100" xml:space="preserve">
<polygon fill="#E9EAEF" stroke="#335C5F" stroke-width="1.5" stroke-linecap="round" stroke-linejoin="round" stroke-miterlimit="10" points="
	45,40 45,60 55,60 55,64.998 90,64.998 90,40 "/>
<rect x="10" y="10" fill="#E9EAEF" stroke="#335C5F" stroke-width="1.5" stroke-linecap="round" stroke-linejoin="round" stroke-miterlimit="10" width="30.001" height="5"/>
<rect x="45" y="35.001" fill="#E9EAEF" stroke="#335C5F" stroke-width="1.5" stroke-linecap="round" stroke-linejoin="round" stroke-miterlimit="10" width="30" height="4.999"/>
<rect x="10" y="64.998" fill="#E9EAEF" stroke="#335C5F" stroke-width="1.5" stroke-linecap="round" stroke-linejoin="round" stroke-miterlimit="10" width="45" height="25.002"/>
<rect x="52.5" y="64.998" fill="#CACCD1" width="2.5" height="25.002"/>
<rect x="87.5" y="40" fill="#CACCD1" width="2.5" height="25.001"/>
<rect x="10" y="59.998" fill="#E9EAEF" stroke="#335C5F" stroke-width="1.5" stroke-linecap="round" stroke-linejoin="round" stroke-miterlimit="10" width="30.001" height="5"/>
<polygon fill="#E9EAEF" stroke="#335C5F" stroke-width="1.5" stroke-linecap="round" stroke-linejoin="round" stroke-miterlimit="10" points="
	45,35 55,35 55,15.001 10,15.001 10,40 45,40 "/>
<polygon fill="#CACCD1" points="52.5,15.001 52.5,32.5 42.499,32.5 42.499,40 45,40 45,35 55,35 55,15.001 "/>
<rect x="34.998" y="20.001" fill="#75C6A4" stroke="#335C5F" stroke-width="1.5" stroke-linecap="round" stroke-linejoin="round" stroke-miterlimit="10" width="15" height="10.001"/>
<rect x="14.998" y="20.001" fill="#46C6F1" stroke="#335C5F" stroke-width="1.5" stroke-linecap="round" stroke-linejoin="round" stroke-miterlimit="10" width="15" height="20"/>
<rect x="49.999" y="10" fill="#FADF7E" stroke="#335C5F" stroke-width="1.5" stroke-linecap="round" stroke-linejoin="round" stroke-miterlimit="10" width="5.001" height="5"/>
<rect x="45" y="10" fill="#FADF7E" stroke="#335C5F" stroke-width="1.5" stroke-linecap="round" stroke-linejoin="round" stroke-miterlimit="10" width="4.999" height="5"/>
<rect x="40.001" y="10" fill="#FADF7E" stroke="#335C5F" stroke-width="1.5" stroke-linecap="round" stroke-linejoin="round" stroke-miterlimit="10" width="4.999" height="5"/>
<rect x="50.002" y="45" fill="#75C6A4" stroke="#335C5F" stroke-width="1.5" stroke-linecap="round" stroke-linejoin="round" stroke-miterlimit="10" width="35" height="10"/>
<rect x="85.002" y="35.001" fill="#FADF7E" stroke="#335C5F" stroke-width="1.5" stroke-linecap="round" stroke-linejoin="round" stroke-miterlimit="10" width="4.998" height="4.999"/>
<rect x="87.5" y="35.001" fill="#D8C26F" width="2.5" height="4.999"/>
<rect x="80.003" y="35.001" fill="#FADF7E" stroke="#335C5F" stroke-width="1.5" stroke-linecap="round" stroke-linejoin="round" stroke-miterlimit="10" width="4.999" height="4.999"/>
<rect x="74.999" y="35.001" fill="#FADF7E" stroke="#335C5F" stroke-width="1.5" stroke-linecap="round" stroke-linejoin="round" stroke-miterlimit="10" width="5.004" height="4.999"/>
<rect x="29.999" y="70" fill="#75C6A4" stroke="#335C5F" stroke-width="1.5" stroke-linecap="round" stroke-linejoin="round" stroke-miterlimit="10" width="20" height="20"/>
<rect x="47.499" y="20.001" fill="#65AD90" width="2.5" height="10.001"/>
<rect x="82.501" y="45" fill="#65AD90" width="2.501" height="10"/>
<rect x="47.499" y="70" fill="#65AD90" width="2.5" height="20"/>
<rect x="14.998" y="70" fill="#46C6F1" stroke="#335C5F" stroke-width="1.5" stroke-linecap="round" stroke-linejoin="round" stroke-miterlimit="10" width="10.002" height="8.75"/>
<rect x="49.999" y="59.998" fill="#FADF7E" stroke="#335C5F" stroke-width="1.5" stroke-linecap="round" stroke-linejoin="round" stroke-miterlimit="10" width="5.001" height="5"/>
<rect x="52.5" y="10" fill="#D8C26F" width="2.5" height="5"/>
<rect x="52.5" y="59.998" fill="#D8C26F" width="2.5" height="5"/>
<rect x="45" y="59.998" fill="#FADF7E" stroke="#335C5F" stroke-width="1.5" stroke-linecap="round" stroke-linejoin="round" stroke-miterlimit="10" width="4.999" height="5"/>
<rect x="40.001" y="59.998" fill="#FADF7E" stroke="#335C5F" stroke-width="1.5" stroke-linecap="round" stroke-linejoin="round" stroke-miterlimit="10" width="4.999" height="5"/>
<rect x="14.998" y="83.748" fill="#46C6F1" stroke="#335C5F" stroke-width="1.5" stroke-linecap="round" stroke-linejoin="round" stroke-miterlimit="10" width="10.002" height="6.252"/>
<rect x="65.003" y="60" fill="#46C6F1" stroke="#335C5F" stroke-width="1.5" stroke-linecap="round" stroke-linejoin="round" stroke-miterlimit="10" width="19.999" height="5"/>
<rect x="27.499" y="20.001" fill="#3EAED3" width="2.5" height="20"/>
<rect x="22.5" y="70" fill="#3EAED3" width="2.501" height="8.75"/>
<rect x="22.5" y="83.748" fill="#3EAED3" width="2.501" height="6.252"/>
<rect x="82.501" y="60" fill="#3EAED3" width="2.501" height="5"/>
<path fill="#FADF7E" stroke="#335C5F" stroke-width="1.5" stroke-linecap="round" stroke-linejoin="round" stroke-miterlimit="10" d="
	M44.376,25c0,1.037-0.841,1.875-1.878,1.875c-1.033,0-1.874-0.839-1.874-1.875c0-1.034,0.841-1.875,1.874-1.875
	C43.535,23.126,44.376,23.967,44.376,25z"/>
<circle fill="#FADF7E" stroke="#335C5F" stroke-width="1.5" stroke-linecap="round" stroke-linejoin="round" stroke-miterlimit="10" cx="77.501" cy="50" r="1.875"/>
<polygon fill="none" stroke="#335C5F" stroke-width="1.5" stroke-linecap="round" stroke-linejoin="round" stroke-miterlimit="10" points="
	77.501,51.875 77.501,77.502 55,77.5 77.501,77.502 "/>
<polygon fill="none" stroke="#335C5F" stroke-width="1.5" stroke-linecap="round" stroke-linejoin="round" stroke-miterlimit="10" points="
	67.499,35.001 67.499,25 44.376,25 67.499,25 "/>
<polygon fill="#CACCD1" points="45,60 55,60 55,64.998 57.5,64.998 57.5,57.5 45,57.5 "/>
<polygon fill="none" stroke="#335C5F" stroke-width="1.5" stroke-linecap="round" stroke-linejoin="round" stroke-miterlimit="10" points="
	45,40 45,60 55,60 55,64.998 90,64.998 90,40 "/>
<rect x="10" y="10" fill="none" stroke="#335C5F" stroke-width="1.5" stroke-linecap="round" stroke-linejoin="round" stroke-miterlimit="10" width="30.001" height="5"/>
<rect x="45" y="35.001" fill="none" stroke="#335C5F" stroke-width="1.5" stroke-linecap="round" stroke-linejoin="round" stroke-miterlimit="10" width="30" height="4.999"/>
<rect x="10" y="64.998" fill="none" stroke="#335C5F" stroke-width="1.5" stroke-linecap="round" stroke-linejoin="round" stroke-miterlimit="10" width="45" height="25.002"/>
<rect x="10" y="59.998" fill="none" stroke="#335C5F" stroke-width="1.5" stroke-linecap="round" stroke-linejoin="round" stroke-miterlimit="10" width="30.001" height="5"/>
<polygon fill="none" stroke="#335C5F" stroke-width="1.5" stroke-linecap="round" stroke-linejoin="round" stroke-miterlimit="10" points="
	45,35 55,35 55,15.001 10,15.001 10,40 45,40 "/>
<rect x="34.998" y="20.001" fill="none" stroke="#335C5F" stroke-width="1.5" stroke-linecap="round" stroke-linejoin="round" stroke-miterlimit="10" width="15" height="10.001"/>
<rect x="14.998" y="20.001" fill="none" stroke="#335C5F" stroke-width="1.5" stroke-linecap="round" stroke-linejoin="round" stroke-miterlimit="10" width="15" height="20"/>
<rect x="49.999" y="10" fill="none" stroke="#335C5F" stroke-width="1.5" stroke-linecap="round" stroke-linejoin="round" stroke-miterlimit="10" width="5.001" height="5"/>
<rect x="45" y="10" fill="none" stroke="#335C5F" stroke-width="1.5" stroke-linecap="round" stroke-linejoin="round" stroke-miterlimit="10" width="4.999" height="5"/>
<rect x="40.001" y="10" fill="none" stroke="#335C5F" stroke-width="1.5" stroke-linecap="round" stroke-linejoin="round" stroke-miterlimit="10" width="4.999" height="5"/>
<rect x="50.002" y="45" fill="none" stroke="#335C5F" stroke-width="1.5" stroke-linecap="round" stroke-linejoin="round" stroke-miterlimit="10" width="35" height="10"/>
<rect x="85.002" y="35.001" fill="none" stroke="#335C5F" stroke-width="1.5" stroke-linecap="round" stroke-linejoin="round" stroke-miterlimit="10" width="4.998" height="4.999"/>
<rect x="80.003" y="35.001" fill="none" stroke="#335C5F" stroke-width="1.5" stroke-linecap="round" stroke-linejoin="round" stroke-miterlimit="10" width="4.999" height="4.999"/>
<rect x="74.999" y="35.001" fill="none" stroke="#335C5F" stroke-width="1.5" stroke-linecap="round" stroke-linejoin="round" stroke-miterlimit="10" width="5.004" height="4.999"/>
<rect x="29.999" y="70" fill="none" stroke="#335C5F" stroke-width="1.5" stroke-linecap="round" stroke-linejoin="round" stroke-miterlimit="10" width="20" height="20"/>
<rect x="14.998" y="70" fill="none" stroke="#335C5F" stroke-width="1.5" stroke-linecap="round" stroke-linejoin="round" stroke-miterlimit="10" width="10.002" height="8.75"/>
<rect x="49.999" y="59.998" fill="none" stroke="#335C5F" stroke-width="1.5" stroke-linecap="round" stroke-linejoin="round" stroke-miterlimit="10" width="5.001" height="5"/>
<rect x="45" y="59.998" fill="none" stroke="#335C5F" stroke-width="1.5" stroke-linecap="round" stroke-linejoin="round" stroke-miterlimit="10" width="4.999" height="5"/>
<rect x="40.001" y="59.998" fill="none" stroke="#335C5F" stroke-width="1.5" stroke-linecap="round" stroke-linejoin="round" stroke-miterlimit="10" width="4.999" height="5"/>
<rect x="14.998" y="83.748" fill="none" stroke="#335C5F" stroke-width="1.5" stroke-linecap="round" stroke-linejoin="round" stroke-miterlimit="10" width="10.002" height="6.252"/>
<rect x="65.003" y="60" fill="none" stroke="#335C5F" stroke-width="1.5" stroke-linecap="round" stroke-linejoin="round" stroke-miterlimit="10" width="19.999" height="5"/>
</svg>
